<svg width="1711" height="1231" viewBox="0 0 1711 1231" fill="none" xmlns="http://www.w3.org/2000/svg">
<g clip-path="url(#clip0_97_267)">
<path opacity="0.976" fill-rule="evenodd" clip-rule="evenodd" d="M887.477 525.239C886.747 526.306 886.349 527.493 886.29 528.802C880.886 537.193 875.939 545.902 871.444 554.93C868.523 560.176 865.755 565.521 863.131 570.963C856.925 582.384 851.183 594.062 845.91 605.999C843.321 611.773 840.547 617.513 837.596 623.22C595.315 623.22 353.035 623.22 110.754 623.22C110.754 616.49 110.754 609.76 110.754 603.03C355.806 603.03 600.858 603.03 845.91 603.03C889.562 438.122 933.309 273.237 977.145 108.373C983.339 109.576 989.479 111.06 995.554 112.827C996.159 113.135 996.551 113.63 996.741 114.311C960.197 251.264 923.772 388.24 887.477 525.239Z" fill="white"/>
<path opacity="0.97" fill-rule="evenodd" clip-rule="evenodd" d="M1082.25 475.357C1092.69 474.698 1102.99 475.589 1113.13 478.029C1116.25 479 1119.22 480.286 1122.04 481.889C1120.11 487.107 1117.73 492.055 1114.91 496.735C1104.42 491.127 1093.34 489.445 1081.65 491.687C1068.54 496.285 1059.54 505.093 1054.64 518.113C1050.43 529.339 1049.43 540.82 1051.67 552.555C1054.25 561.075 1059.89 566.321 1068.59 568.291C1073.15 568.687 1077.69 568.687 1082.25 568.291C1084.96 568.059 1087.53 567.366 1089.97 566.213C1091.95 557.701 1093.93 549.189 1095.91 540.678C1089.18 540.282 1082.44 539.886 1075.72 539.49C1077.01 534.803 1078 530.052 1078.69 525.239C1091.35 525.239 1104.02 525.239 1116.69 525.239C1113.06 543.241 1109.1 561.154 1104.81 578.98C1091.33 583.684 1077.47 585.267 1063.25 583.73C1048.6 581.543 1038.8 573.526 1033.85 559.68C1029.17 537.531 1032.93 516.945 1045.13 497.923C1054.64 485.602 1067.01 478.081 1082.25 475.357Z" fill="white"/>
<path opacity="0.969" fill-rule="evenodd" clip-rule="evenodd" d="M1307.31 475.357C1337.89 472.492 1353.52 486.348 1354.22 516.925C1354.58 536.511 1348.74 553.929 1336.7 569.182C1321.07 583.882 1302.96 587.94 1282.37 581.355C1269.16 575.252 1261.93 564.86 1260.69 550.179C1258.79 528.571 1264.34 509.172 1277.32 491.984C1285.5 483.096 1295.5 477.553 1307.31 475.357ZM1308.49 490.797C1324.76 488.782 1333.77 495.908 1335.51 512.174C1336.41 526.21 1333.64 539.472 1327.2 551.961C1320.11 564.263 1309.52 569.707 1295.43 568.291C1288.55 566.367 1283.71 562.112 1280.88 555.524C1276.73 536.135 1280.29 518.32 1291.57 502.079C1296.14 496.588 1301.78 492.828 1308.49 490.797Z" fill="white"/>
<path opacity="0.97" fill-rule="evenodd" clip-rule="evenodd" d="M1005.65 477.139C1011.59 477.04 1017.53 477.139 1023.46 477.436C1015.83 512.533 1008.31 547.667 1000.9 582.84C994.959 582.84 989.02 582.84 983.082 582.84C990.529 547.587 998.052 512.353 1005.65 477.139Z" fill="white"/>
<path opacity="0.968" fill-rule="evenodd" clip-rule="evenodd" d="M1150.53 477.139C1158.65 477.139 1166.76 477.139 1174.88 477.139C1177.43 504.465 1180.1 531.781 1182.9 559.086C1197.25 531.968 1211.6 504.851 1225.95 477.732C1234.65 477.139 1243.36 476.941 1252.08 477.139C1244.76 512.372 1237.43 547.606 1230.11 582.839C1224.36 582.839 1218.63 582.839 1212.89 582.839C1218.64 554.876 1224.48 526.966 1230.4 499.11C1215.75 526.822 1201.11 554.534 1186.46 582.246C1181.07 582.831 1175.62 583.028 1170.13 582.839C1167.69 554.12 1165.02 525.419 1162.11 496.735C1161.38 503.109 1160.39 509.443 1159.14 515.737C1154.38 538.089 1149.73 560.457 1145.19 582.839C1139.65 582.839 1134.1 582.839 1128.56 582.839C1135.88 547.606 1143.21 512.372 1150.53 477.139Z" fill="white"/>
<path opacity="0.97" fill-rule="evenodd" clip-rule="evenodd" d="M1386.29 477.139C1392.23 477.04 1398.17 477.139 1404.1 477.436C1396.47 512.533 1388.95 547.667 1381.54 582.84C1375.6 582.84 1369.66 582.84 1363.72 582.84C1371.17 547.587 1378.69 512.353 1386.29 477.139Z" fill="white"/>
<path opacity="0.973" fill-rule="evenodd" clip-rule="evenodd" d="M1430.23 477.139C1442.31 477.04 1454.38 477.139 1466.45 477.436C1483.12 479.854 1493.32 489.256 1497.03 505.642C1500.27 524.616 1497.09 542.431 1487.53 559.087C1477.59 572.622 1464.23 580.441 1447.45 582.543C1434.19 582.84 1420.93 582.939 1407.66 582.84C1415 547.55 1422.52 512.316 1430.23 477.139ZM1445.08 491.391C1451.46 491.248 1457.8 491.743 1464.08 492.875C1472.99 495.939 1478.04 502.174 1479.22 511.581C1481.29 527.636 1477.53 542.085 1467.94 554.93C1456.93 565.629 1443.77 569.786 1428.45 567.4C1434.07 542.063 1439.61 516.727 1445.08 491.391Z" fill="white"/>
<path opacity="0.976" fill-rule="evenodd" clip-rule="evenodd" d="M869.661 603.03C1111.75 603.03 1353.82 603.03 1595.91 603.03C1595.91 609.759 1595.91 616.49 1595.91 623.22C1351.06 623.12 1106.2 623.22 861.347 623.517C817.386 788.054 773.544 952.644 729.815 1117.28C729.387 1117.61 728.889 1117.81 728.33 1117.88C722.054 1116.45 715.92 1114.66 709.922 1112.53C746.531 975.602 782.951 838.624 819.186 701.605C819.186 701.409 819.186 701.207 819.186 701.011C819.584 701.011 819.78 700.815 819.78 700.417C824.483 692 829.037 683.488 833.438 674.882C839.655 664.096 845.391 653.011 850.658 641.628C856.419 630.119 861.959 618.44 867.286 606.592C867.79 605.178 868.58 603.99 869.661 603.03Z" fill="white"/>
<path d="M97.8359 1119.06C231.235 1119.06 650.09 1053.12 851.699 614.15C1057.35 166.373 1511.86 113.718 1605.54 113.718" stroke="url(#paint0_linear_97_267)" stroke-width="23"/>
</g>
<defs>
<linearGradient id="paint0_linear_97_267" x1="97.8359" y1="1119.06" x2="1591.49" y2="93.2605" gradientUnits="userSpaceOnUse">
<stop offset="0.33" stop-color="#0132DE"/>
<stop offset="0.927083" stop-color="#4ECAFF"/>
</linearGradient>
<clipPath id="clip0_97_267">
<rect width="1710.22" height="1231" fill="white"/>
</clipPath>
</defs>
</svg>
